<mxfile host="app.diagrams.net" modified="2023-07-01T10:05:31.340Z" agent="Mozilla/5.0 (Windows NT 10.0; Win64; x64; rv:102.0) Gecko/20100101 Firefox/102.0" etag="_kofLu8WVdfdqltDIgQ8" version="21.5.0" pages="4">
  <diagram id="L3knT8BP30ZGt4Ct5Z5X" name="Page-3">
    <mxGraphModel dx="1274" dy="677" grid="1" gridSize="10" guides="1" tooltips="1" connect="1" arrows="1" fold="1" page="1" pageScale="1" pageWidth="850" pageHeight="1100" math="0" shadow="0">
      <root>
        <mxCell id="0" />
        <mxCell id="1" parent="0" />
        <mxCell id="oMeNW5K8frvR-J2eTh7L-1" value="" style="ellipse;html=1;shape=startState;fillColor=#000000;strokeColor=#ff0000;" vertex="1" parent="1">
          <mxGeometry x="410" y="340" width="30" height="30" as="geometry" />
        </mxCell>
        <mxCell id="oMeNW5K8frvR-J2eTh7L-2" value="" style="edgeStyle=orthogonalEdgeStyle;html=1;verticalAlign=bottom;endArrow=open;endSize=8;strokeColor=#ff0000;rounded=0;" edge="1" source="oMeNW5K8frvR-J2eTh7L-1" parent="1" target="oMeNW5K8frvR-J2eTh7L-3">
          <mxGeometry relative="1" as="geometry">
            <mxPoint x="425" y="430" as="targetPoint" />
          </mxGeometry>
        </mxCell>
        <mxCell id="oMeNW5K8frvR-J2eTh7L-8" value="" style="edgeStyle=orthogonalEdgeStyle;rounded=0;orthogonalLoop=1;jettySize=auto;html=1;" edge="1" parent="1" source="oMeNW5K8frvR-J2eTh7L-3" target="oMeNW5K8frvR-J2eTh7L-5">
          <mxGeometry relative="1" as="geometry" />
        </mxCell>
        <mxCell id="oMeNW5K8frvR-J2eTh7L-3" value="Create Order" style="rounded=1;whiteSpace=wrap;html=1;arcSize=40;fontColor=#000000;fillColor=#ffffc0;strokeColor=#ff0000;" vertex="1" parent="1">
          <mxGeometry x="365" y="430" width="120" height="40" as="geometry" />
        </mxCell>
        <mxCell id="oMeNW5K8frvR-J2eTh7L-5" value="&lt;div&gt;isPrimeMember&lt;/div&gt;&lt;div&gt;&lt;br&gt;&lt;/div&gt;" style="rhombus;whiteSpace=wrap;html=1;fontColor=#000000;fillColor=#ffffc0;strokeColor=#ff0000;" vertex="1" parent="1">
          <mxGeometry x="358" y="515" width="135" height="70" as="geometry" />
        </mxCell>
        <mxCell id="oMeNW5K8frvR-J2eTh7L-6" value="no" style="edgeStyle=orthogonalEdgeStyle;html=1;align=left;verticalAlign=bottom;endArrow=open;endSize=8;strokeColor=#ff0000;rounded=0;" edge="1" source="oMeNW5K8frvR-J2eTh7L-5" parent="1">
          <mxGeometry x="-1" relative="1" as="geometry">
            <mxPoint x="530" y="640" as="targetPoint" />
            <Array as="points">
              <mxPoint x="530" y="550" />
            </Array>
          </mxGeometry>
        </mxCell>
        <mxCell id="oMeNW5K8frvR-J2eTh7L-7" value="yes" style="edgeStyle=orthogonalEdgeStyle;html=1;align=left;verticalAlign=top;endArrow=open;endSize=8;strokeColor=#ff0000;rounded=0;" edge="1" source="oMeNW5K8frvR-J2eTh7L-5" parent="1">
          <mxGeometry x="-0.5909" y="-30" relative="1" as="geometry">
            <mxPoint x="320" y="640" as="targetPoint" />
            <Array as="points">
              <mxPoint x="320" y="550" />
              <mxPoint x="320" y="590" />
            </Array>
            <mxPoint as="offset" />
          </mxGeometry>
        </mxCell>
        <mxCell id="oMeNW5K8frvR-J2eTh7L-33" value="" style="edgeStyle=orthogonalEdgeStyle;rounded=0;orthogonalLoop=1;jettySize=auto;html=1;" edge="1" parent="1" source="oMeNW5K8frvR-J2eTh7L-9" target="oMeNW5K8frvR-J2eTh7L-31">
          <mxGeometry relative="1" as="geometry" />
        </mxCell>
        <mxCell id="oMeNW5K8frvR-J2eTh7L-9" value="" style="shape=line;html=1;strokeWidth=6;strokeColor=#ff0000;" vertex="1" parent="1">
          <mxGeometry x="320" y="760" width="220" height="10" as="geometry" />
        </mxCell>
        <mxCell id="oMeNW5K8frvR-J2eTh7L-20" value="" style="edgeStyle=orthogonalEdgeStyle;rounded=0;orthogonalLoop=1;jettySize=auto;html=1;" edge="1" parent="1" source="oMeNW5K8frvR-J2eTh7L-11" target="oMeNW5K8frvR-J2eTh7L-9">
          <mxGeometry relative="1" as="geometry" />
        </mxCell>
        <mxCell id="oMeNW5K8frvR-J2eTh7L-11" value="Prime Dispatch" style="rounded=1;whiteSpace=wrap;html=1;arcSize=40;fontColor=#000000;fillColor=#ffffc0;strokeColor=#ff0000;" vertex="1" parent="1">
          <mxGeometry x="260" y="640" width="120" height="40" as="geometry" />
        </mxCell>
        <mxCell id="oMeNW5K8frvR-J2eTh7L-21" value="" style="edgeStyle=orthogonalEdgeStyle;rounded=0;orthogonalLoop=1;jettySize=auto;html=1;" edge="1" parent="1" source="oMeNW5K8frvR-J2eTh7L-16" target="oMeNW5K8frvR-J2eTh7L-9">
          <mxGeometry relative="1" as="geometry" />
        </mxCell>
        <mxCell id="oMeNW5K8frvR-J2eTh7L-16" value="Regular Dispatch" style="rounded=1;whiteSpace=wrap;html=1;arcSize=40;fontColor=#000000;fillColor=#ffffc0;strokeColor=#ff0000;" vertex="1" parent="1">
          <mxGeometry x="470" y="640" width="120" height="40" as="geometry" />
        </mxCell>
        <mxCell id="oMeNW5K8frvR-J2eTh7L-31" value="Generate Invoice" style="rounded=1;whiteSpace=wrap;html=1;arcSize=40;fontColor=#000000;fillColor=#ffffc0;strokeColor=#ff0000;" vertex="1" parent="1">
          <mxGeometry x="370" y="820" width="120" height="40" as="geometry" />
        </mxCell>
        <mxCell id="oMeNW5K8frvR-J2eTh7L-32" value="" style="edgeStyle=orthogonalEdgeStyle;html=1;verticalAlign=bottom;endArrow=open;endSize=8;strokeColor=#ff0000;rounded=0;" edge="1" source="oMeNW5K8frvR-J2eTh7L-31" parent="1">
          <mxGeometry relative="1" as="geometry">
            <mxPoint x="430" y="920" as="targetPoint" />
          </mxGeometry>
        </mxCell>
        <mxCell id="oMeNW5K8frvR-J2eTh7L-34" value="" style="ellipse;html=1;shape=endState;fillColor=#000000;strokeColor=#ff0000;" vertex="1" parent="1">
          <mxGeometry x="415" y="920" width="30" height="30" as="geometry" />
        </mxCell>
      </root>
    </mxGraphModel>
  </diagram>
  <diagram id="41VwiAR67gNY8cVeBF2E" name="Page-4">
    <mxGraphModel dx="1499" dy="796" grid="1" gridSize="10" guides="1" tooltips="1" connect="1" arrows="1" fold="1" page="1" pageScale="1" pageWidth="850" pageHeight="1100" math="0" shadow="0">
      <root>
        <mxCell id="0" />
        <mxCell id="1" parent="0" />
        <mxCell id="Jh90s6siLC83HZw3vAkv-33" value="" style="edgeStyle=orthogonalEdgeStyle;rounded=0;orthogonalLoop=1;jettySize=auto;html=1;" edge="1" parent="1" source="Jh90s6siLC83HZw3vAkv-1" target="Jh90s6siLC83HZw3vAkv-3">
          <mxGeometry relative="1" as="geometry" />
        </mxCell>
        <mxCell id="Jh90s6siLC83HZw3vAkv-1" value="" style="ellipse;html=1;shape=startState;fillColor=#000000;strokeColor=#ff0000;" vertex="1" parent="1">
          <mxGeometry x="405" y="280" width="30" height="30" as="geometry" />
        </mxCell>
        <mxCell id="Jh90s6siLC83HZw3vAkv-35" style="edgeStyle=orthogonalEdgeStyle;rounded=0;orthogonalLoop=1;jettySize=auto;html=1;" edge="1" parent="1" source="Jh90s6siLC83HZw3vAkv-3" target="Jh90s6siLC83HZw3vAkv-5">
          <mxGeometry relative="1" as="geometry" />
        </mxCell>
        <mxCell id="Jh90s6siLC83HZw3vAkv-3" value="User logs into the System" style="rounded=1;whiteSpace=wrap;html=1;arcSize=40;fontColor=#000000;fillColor=#ffffc0;strokeColor=#ff0000;" vertex="1" parent="1">
          <mxGeometry x="360" y="370" width="120" height="40" as="geometry" />
        </mxCell>
        <mxCell id="Jh90s6siLC83HZw3vAkv-23" style="edgeStyle=orthogonalEdgeStyle;rounded=0;orthogonalLoop=1;jettySize=auto;html=1;entryX=0.567;entryY=0.05;entryDx=0;entryDy=0;entryPerimeter=0;" edge="1" parent="1" source="Jh90s6siLC83HZw3vAkv-5" target="Jh90s6siLC83HZw3vAkv-7">
          <mxGeometry relative="1" as="geometry" />
        </mxCell>
        <mxCell id="Jh90s6siLC83HZw3vAkv-24" style="edgeStyle=orthogonalEdgeStyle;rounded=0;orthogonalLoop=1;jettySize=auto;html=1;entryX=0.5;entryY=0;entryDx=0;entryDy=0;" edge="1" parent="1" source="Jh90s6siLC83HZw3vAkv-5" target="Jh90s6siLC83HZw3vAkv-9">
          <mxGeometry relative="1" as="geometry" />
        </mxCell>
        <mxCell id="Jh90s6siLC83HZw3vAkv-5" value="" style="shape=line;html=1;strokeWidth=6;strokeColor=#ff0000;" vertex="1" parent="1">
          <mxGeometry x="320" y="470" width="200" height="10" as="geometry" />
        </mxCell>
        <mxCell id="Jh90s6siLC83HZw3vAkv-25" style="edgeStyle=orthogonalEdgeStyle;rounded=0;orthogonalLoop=1;jettySize=auto;html=1;" edge="1" parent="1" source="Jh90s6siLC83HZw3vAkv-7" target="Jh90s6siLC83HZw3vAkv-18">
          <mxGeometry relative="1" as="geometry" />
        </mxCell>
        <mxCell id="Jh90s6siLC83HZw3vAkv-7" value="Data Entry" style="rounded=1;whiteSpace=wrap;html=1;arcSize=40;fontColor=#000000;fillColor=#ffffc0;strokeColor=#ff0000;" vertex="1" parent="1">
          <mxGeometry x="290" y="520" width="120" height="40" as="geometry" />
        </mxCell>
        <mxCell id="Jh90s6siLC83HZw3vAkv-26" style="edgeStyle=orthogonalEdgeStyle;rounded=0;orthogonalLoop=1;jettySize=auto;html=1;" edge="1" parent="1" source="Jh90s6siLC83HZw3vAkv-9" target="Jh90s6siLC83HZw3vAkv-18">
          <mxGeometry relative="1" as="geometry" />
        </mxCell>
        <mxCell id="Jh90s6siLC83HZw3vAkv-9" value="Review and Approve data" style="rounded=1;whiteSpace=wrap;html=1;arcSize=40;fontColor=#000000;fillColor=#ffffc0;strokeColor=#ff0000;" vertex="1" parent="1">
          <mxGeometry x="440" y="520" width="120" height="40" as="geometry" />
        </mxCell>
        <mxCell id="Jh90s6siLC83HZw3vAkv-29" value="" style="edgeStyle=orthogonalEdgeStyle;rounded=0;orthogonalLoop=1;jettySize=auto;html=1;" edge="1" parent="1" source="Jh90s6siLC83HZw3vAkv-18" target="Jh90s6siLC83HZw3vAkv-27">
          <mxGeometry relative="1" as="geometry" />
        </mxCell>
        <mxCell id="Jh90s6siLC83HZw3vAkv-18" value="" style="shape=line;html=1;strokeWidth=6;strokeColor=#ff0000;" vertex="1" parent="1">
          <mxGeometry x="320" y="640" width="200" height="10" as="geometry" />
        </mxCell>
        <mxCell id="Jh90s6siLC83HZw3vAkv-32" value="" style="edgeStyle=orthogonalEdgeStyle;rounded=0;orthogonalLoop=1;jettySize=auto;html=1;" edge="1" parent="1" source="Jh90s6siLC83HZw3vAkv-27" target="Jh90s6siLC83HZw3vAkv-30">
          <mxGeometry relative="1" as="geometry" />
        </mxCell>
        <mxCell id="Jh90s6siLC83HZw3vAkv-27" value="Data Validation" style="rounded=1;whiteSpace=wrap;html=1;arcSize=40;fontColor=#000000;fillColor=#ffffc0;strokeColor=#ff0000;" vertex="1" parent="1">
          <mxGeometry x="360" y="700" width="120" height="40" as="geometry" />
        </mxCell>
        <mxCell id="Jh90s6siLC83HZw3vAkv-38" value="" style="edgeStyle=orthogonalEdgeStyle;rounded=0;orthogonalLoop=1;jettySize=auto;html=1;" edge="1" parent="1" source="Jh90s6siLC83HZw3vAkv-30" target="Jh90s6siLC83HZw3vAkv-36">
          <mxGeometry relative="1" as="geometry" />
        </mxCell>
        <mxCell id="Jh90s6siLC83HZw3vAkv-30" value="Process the data" style="rounded=1;whiteSpace=wrap;html=1;arcSize=40;fontColor=#000000;fillColor=#ffffc0;strokeColor=#ff0000;" vertex="1" parent="1">
          <mxGeometry x="360" y="800" width="120" height="40" as="geometry" />
        </mxCell>
        <mxCell id="Jh90s6siLC83HZw3vAkv-41" value="" style="edgeStyle=orthogonalEdgeStyle;rounded=0;orthogonalLoop=1;jettySize=auto;html=1;" edge="1" parent="1" source="Jh90s6siLC83HZw3vAkv-36" target="Jh90s6siLC83HZw3vAkv-39">
          <mxGeometry relative="1" as="geometry" />
        </mxCell>
        <mxCell id="Jh90s6siLC83HZw3vAkv-36" value="Generate Report" style="rounded=1;whiteSpace=wrap;html=1;arcSize=40;fontColor=#000000;fillColor=#ffffc0;strokeColor=#ff0000;" vertex="1" parent="1">
          <mxGeometry x="360" y="890" width="120" height="40" as="geometry" />
        </mxCell>
        <mxCell id="Jh90s6siLC83HZw3vAkv-43" value="" style="edgeStyle=orthogonalEdgeStyle;rounded=0;orthogonalLoop=1;jettySize=auto;html=1;" edge="1" parent="1" source="Jh90s6siLC83HZw3vAkv-39" target="Jh90s6siLC83HZw3vAkv-42">
          <mxGeometry relative="1" as="geometry" />
        </mxCell>
        <mxCell id="Jh90s6siLC83HZw3vAkv-39" value="Review Report" style="rounded=1;whiteSpace=wrap;html=1;arcSize=40;fontColor=#000000;fillColor=#ffffc0;strokeColor=#ff0000;" vertex="1" parent="1">
          <mxGeometry x="360" y="980" width="120" height="40" as="geometry" />
        </mxCell>
        <mxCell id="Jh90s6siLC83HZw3vAkv-42" value="" style="ellipse;html=1;shape=endState;fillColor=#000000;strokeColor=#ff0000;" vertex="1" parent="1">
          <mxGeometry x="405" y="1060" width="30" height="30" as="geometry" />
        </mxCell>
      </root>
    </mxGraphModel>
  </diagram>
  <diagram id="MoO55D6IjkqkhDbXtFlU" name="Page-5">
    <mxGraphModel dx="1274" dy="677" grid="1" gridSize="10" guides="1" tooltips="1" connect="1" arrows="1" fold="1" page="1" pageScale="1" pageWidth="850" pageHeight="1100" math="0" shadow="0">
      <root>
        <mxCell id="0" />
        <mxCell id="1" parent="0" />
        <mxCell id="-tFSlawCAVPnyXLjCTpL-4" value="Flat file" style="html=1;shadow=0;dashed=0;align=center;verticalAlign=middle;shape=mxgraph.arrows2.arrow;dy=0;dx=10;notch=0;" vertex="1" parent="1">
          <mxGeometry x="150" y="270" width="160" height="70" as="geometry" />
        </mxCell>
        <mxCell id="-tFSlawCAVPnyXLjCTpL-6" value="&lt;div&gt;Drop in server&lt;/div&gt;" style="html=1;shadow=0;dashed=0;align=center;verticalAlign=middle;shape=mxgraph.arrows2.arrow;dy=0;dx=10;notch=10;" vertex="1" parent="1">
          <mxGeometry x="380" y="270" width="165" height="72.5" as="geometry" />
        </mxCell>
        <mxCell id="-tFSlawCAVPnyXLjCTpL-7" value="Load to data warehouse" style="shape=mxgraph.sysml.accEvent;flipH=1;whiteSpace=wrap;align=center;html=1;direction=west;" vertex="1" parent="1">
          <mxGeometry x="600" y="270" width="160" height="77.5" as="geometry" />
        </mxCell>
      </root>
    </mxGraphModel>
  </diagram>
  <diagram id="beYAltUPLt1scNn9g40F" name="Delivary System">
    <mxGraphModel dx="1499" dy="796" grid="1" gridSize="10" guides="1" tooltips="1" connect="1" arrows="1" fold="1" page="1" pageScale="1" pageWidth="850" pageHeight="1100" math="0" shadow="0">
      <root>
        <mxCell id="0" />
        <mxCell id="1" parent="0" />
        <mxCell id="fYVT2SkjTTVSlGzxmw08-56" value="Tracking&lt;br&gt;" style="shape=rect;html=1;rounded=1;strokeWidth=2;verticalAlign=top;whiteSpace=wrap;align=center;" vertex="1" parent="1">
          <mxGeometry x="800" y="300" width="240" height="660" as="geometry" />
        </mxCell>
        <mxCell id="fYVT2SkjTTVSlGzxmw08-31" value="Delivery" style="shape=rect;html=1;rounded=1;strokeWidth=2;verticalAlign=top;whiteSpace=wrap;align=center;" vertex="1" parent="1">
          <mxGeometry x="610" y="300" width="190" height="660" as="geometry" />
        </mxCell>
        <mxCell id="fYVT2SkjTTVSlGzxmw08-30" value="Order&lt;br&gt;" style="shape=rect;html=1;rounded=1;strokeWidth=2;verticalAlign=top;whiteSpace=wrap;align=center;" vertex="1" parent="1">
          <mxGeometry x="250" y="300" width="360" height="660" as="geometry" />
        </mxCell>
        <mxCell id="fYVT2SkjTTVSlGzxmw08-44" value="" style="edgeStyle=orthogonalEdgeStyle;rounded=0;orthogonalLoop=1;jettySize=auto;html=1;" edge="1" parent="1" source="1ASibQThLMudOtBVqUf--1" target="1ASibQThLMudOtBVqUf--4">
          <mxGeometry relative="1" as="geometry" />
        </mxCell>
        <mxCell id="1ASibQThLMudOtBVqUf--1" value="" style="ellipse;html=1;shape=startState;fillColor=#000000;strokeColor=#ff0000;" vertex="1" parent="1">
          <mxGeometry x="410" y="340" width="30" height="30" as="geometry" />
        </mxCell>
        <mxCell id="1ASibQThLMudOtBVqUf--3" value="" style="edgeStyle=orthogonalEdgeStyle;rounded=0;orthogonalLoop=1;jettySize=auto;html=1;" edge="1" parent="1" source="1ASibQThLMudOtBVqUf--4" target="1ASibQThLMudOtBVqUf--5">
          <mxGeometry relative="1" as="geometry" />
        </mxCell>
        <mxCell id="1ASibQThLMudOtBVqUf--4" value="Create Order" style="rounded=1;whiteSpace=wrap;html=1;arcSize=40;fontColor=#000000;fillColor=#ffffc0;strokeColor=#ff0000;" vertex="1" parent="1">
          <mxGeometry x="365" y="430" width="120" height="40" as="geometry" />
        </mxCell>
        <mxCell id="1ASibQThLMudOtBVqUf--5" value="&lt;div&gt;isPrimeMember&lt;/div&gt;&lt;div&gt;&lt;br&gt;&lt;/div&gt;" style="rhombus;whiteSpace=wrap;html=1;fontColor=#000000;fillColor=#ffffc0;strokeColor=#ff0000;" vertex="1" parent="1">
          <mxGeometry x="358" y="515" width="135" height="70" as="geometry" />
        </mxCell>
        <mxCell id="1ASibQThLMudOtBVqUf--6" value="no" style="edgeStyle=orthogonalEdgeStyle;html=1;align=left;verticalAlign=bottom;endArrow=open;endSize=8;strokeColor=#ff0000;rounded=0;" edge="1" parent="1" source="1ASibQThLMudOtBVqUf--5">
          <mxGeometry x="-1" relative="1" as="geometry">
            <mxPoint x="530" y="640" as="targetPoint" />
            <Array as="points">
              <mxPoint x="530" y="550" />
            </Array>
          </mxGeometry>
        </mxCell>
        <mxCell id="1ASibQThLMudOtBVqUf--7" value="yes" style="edgeStyle=orthogonalEdgeStyle;html=1;align=left;verticalAlign=top;endArrow=open;endSize=8;strokeColor=#ff0000;rounded=0;" edge="1" parent="1" source="1ASibQThLMudOtBVqUf--5">
          <mxGeometry x="-0.5909" y="-30" relative="1" as="geometry">
            <mxPoint x="320" y="640" as="targetPoint" />
            <Array as="points">
              <mxPoint x="320" y="550" />
              <mxPoint x="320" y="590" />
            </Array>
            <mxPoint as="offset" />
          </mxGeometry>
        </mxCell>
        <mxCell id="1ASibQThLMudOtBVqUf--8" value="" style="edgeStyle=orthogonalEdgeStyle;rounded=0;orthogonalLoop=1;jettySize=auto;html=1;" edge="1" parent="1" source="1ASibQThLMudOtBVqUf--9" target="1ASibQThLMudOtBVqUf--14">
          <mxGeometry relative="1" as="geometry" />
        </mxCell>
        <mxCell id="1ASibQThLMudOtBVqUf--9" value="" style="shape=line;html=1;strokeWidth=6;strokeColor=#ff0000;" vertex="1" parent="1">
          <mxGeometry x="290" y="760" width="280" height="10" as="geometry" />
        </mxCell>
        <mxCell id="fYVT2SkjTTVSlGzxmw08-42" value="" style="edgeStyle=orthogonalEdgeStyle;rounded=0;orthogonalLoop=1;jettySize=auto;html=1;entryX=0.25;entryY=0.5;entryDx=0;entryDy=0;entryPerimeter=0;" edge="1" parent="1" source="1ASibQThLMudOtBVqUf--11" target="1ASibQThLMudOtBVqUf--9">
          <mxGeometry relative="1" as="geometry" />
        </mxCell>
        <mxCell id="1ASibQThLMudOtBVqUf--11" value="Prime Dispatch" style="rounded=1;whiteSpace=wrap;html=1;arcSize=40;fontColor=#000000;fillColor=#ffffc0;strokeColor=#ff0000;" vertex="1" parent="1">
          <mxGeometry x="260" y="640" width="120" height="40" as="geometry" />
        </mxCell>
        <mxCell id="fYVT2SkjTTVSlGzxmw08-43" value="" style="edgeStyle=orthogonalEdgeStyle;rounded=0;orthogonalLoop=1;jettySize=auto;html=1;entryX=0.75;entryY=0.5;entryDx=0;entryDy=0;entryPerimeter=0;" edge="1" parent="1" source="1ASibQThLMudOtBVqUf--13" target="1ASibQThLMudOtBVqUf--9">
          <mxGeometry relative="1" as="geometry" />
        </mxCell>
        <mxCell id="1ASibQThLMudOtBVqUf--13" value="Regular Dispatch" style="rounded=1;whiteSpace=wrap;html=1;arcSize=40;fontColor=#000000;fillColor=#ffffc0;strokeColor=#ff0000;" vertex="1" parent="1">
          <mxGeometry x="470" y="640" width="120" height="40" as="geometry" />
        </mxCell>
        <mxCell id="fYVT2SkjTTVSlGzxmw08-54" style="edgeStyle=orthogonalEdgeStyle;rounded=0;orthogonalLoop=1;jettySize=auto;html=1;" edge="1" parent="1" source="1ASibQThLMudOtBVqUf--14" target="fYVT2SkjTTVSlGzxmw08-49">
          <mxGeometry relative="1" as="geometry">
            <Array as="points">
              <mxPoint x="670" y="840" />
              <mxPoint x="670" y="840" />
            </Array>
          </mxGeometry>
        </mxCell>
        <mxCell id="1ASibQThLMudOtBVqUf--14" value="Confirm Order" style="rounded=1;whiteSpace=wrap;html=1;arcSize=40;fontColor=#000000;fillColor=#ffffc0;strokeColor=#ff0000;" vertex="1" parent="1">
          <mxGeometry x="370" y="820" width="120" height="40" as="geometry" />
        </mxCell>
        <mxCell id="1ASibQThLMudOtBVqUf--16" value="" style="ellipse;html=1;shape=endState;fillColor=#000000;strokeColor=#ff0000;" vertex="1" parent="1">
          <mxGeometry x="415" y="920" width="30" height="30" as="geometry" />
        </mxCell>
        <mxCell id="fYVT2SkjTTVSlGzxmw08-55" value="" style="edgeStyle=orthogonalEdgeStyle;rounded=0;orthogonalLoop=1;jettySize=auto;html=1;" edge="1" parent="1" source="fYVT2SkjTTVSlGzxmw08-49" target="fYVT2SkjTTVSlGzxmw08-52">
          <mxGeometry relative="1" as="geometry" />
        </mxCell>
        <mxCell id="fYVT2SkjTTVSlGzxmw08-49" value="Accept Delivery" style="rounded=1;whiteSpace=wrap;html=1;arcSize=40;fontColor=#000000;fillColor=#ffffc0;strokeColor=#ff0000;" vertex="1" parent="1">
          <mxGeometry x="645" y="820" width="120" height="40" as="geometry" />
        </mxCell>
        <mxCell id="fYVT2SkjTTVSlGzxmw08-69" style="edgeStyle=orthogonalEdgeStyle;rounded=0;orthogonalLoop=1;jettySize=auto;html=1;" edge="1" parent="1" source="fYVT2SkjTTVSlGzxmw08-52" target="fYVT2SkjTTVSlGzxmw08-57">
          <mxGeometry relative="1" as="geometry" />
        </mxCell>
        <mxCell id="fYVT2SkjTTVSlGzxmw08-52" value="Ship Item" style="rounded=1;whiteSpace=wrap;html=1;arcSize=40;fontColor=#000000;fillColor=#ffffc0;strokeColor=#ff0000;" vertex="1" parent="1">
          <mxGeometry x="645" y="630" width="120" height="40" as="geometry" />
        </mxCell>
        <mxCell id="fYVT2SkjTTVSlGzxmw08-66" style="edgeStyle=orthogonalEdgeStyle;rounded=0;orthogonalLoop=1;jettySize=auto;html=1;" edge="1" parent="1" source="fYVT2SkjTTVSlGzxmw08-57" target="fYVT2SkjTTVSlGzxmw08-59">
          <mxGeometry relative="1" as="geometry" />
        </mxCell>
        <mxCell id="fYVT2SkjTTVSlGzxmw08-57" value="Item reached Fulfillment center " style="rounded=1;whiteSpace=wrap;html=1;arcSize=40;fontColor=#000000;fillColor=#ffffc0;strokeColor=#ff0000;" vertex="1" parent="1">
          <mxGeometry x="860" y="630" width="120" height="40" as="geometry" />
        </mxCell>
        <mxCell id="fYVT2SkjTTVSlGzxmw08-67" style="edgeStyle=orthogonalEdgeStyle;rounded=0;orthogonalLoop=1;jettySize=auto;html=1;" edge="1" parent="1" source="fYVT2SkjTTVSlGzxmw08-59" target="fYVT2SkjTTVSlGzxmw08-61">
          <mxGeometry relative="1" as="geometry" />
        </mxCell>
        <mxCell id="fYVT2SkjTTVSlGzxmw08-59" value="Out for delivary" style="rounded=1;whiteSpace=wrap;html=1;arcSize=40;fontColor=#000000;fillColor=#ffffc0;strokeColor=#ff0000;" vertex="1" parent="1">
          <mxGeometry x="860" y="760" width="120" height="40" as="geometry" />
        </mxCell>
        <mxCell id="fYVT2SkjTTVSlGzxmw08-63" style="edgeStyle=orthogonalEdgeStyle;rounded=0;orthogonalLoop=1;jettySize=auto;html=1;entryX=1;entryY=0.5;entryDx=0;entryDy=0;" edge="1" parent="1" source="fYVT2SkjTTVSlGzxmw08-61" target="1ASibQThLMudOtBVqUf--16">
          <mxGeometry relative="1" as="geometry" />
        </mxCell>
        <mxCell id="fYVT2SkjTTVSlGzxmw08-61" value="Delivered" style="rounded=1;whiteSpace=wrap;html=1;arcSize=40;fontColor=#000000;fillColor=#ffffc0;strokeColor=#ff0000;" vertex="1" parent="1">
          <mxGeometry x="860" y="915" width="120" height="40" as="geometry" />
        </mxCell>
      </root>
    </mxGraphModel>
  </diagram>
</mxfile>
